<mxfile host="app.diagrams.net" modified="2022-10-12T17:09:42.682Z" agent="5.0 (Macintosh; Intel Mac OS X 10_15_7) AppleWebKit/537.36 (KHTML, like Gecko) Chrome/105.0.0.0 Safari/537.36" etag="aqzFKIskdZcVsURej4Ve" version="20.3.7" type="github">
  <diagram name="Page-1" id="80d4a630-b321-0f5e-ff81-c5a36ef4752d">
    <mxGraphModel dx="1056" dy="593" grid="1" gridSize="10" guides="1" tooltips="1" connect="1" arrows="1" fold="1" page="1" pageScale="1" pageWidth="1100" pageHeight="850" background="none" math="0" shadow="0">
      <root>
        <mxCell id="0" />
        <mxCell id="1" parent="0" />
        <mxCell id="8_gQvbuOxsxqIe7lggPF-1" value="Sunway University" style="points=[];aspect=fixed;html=1;align=center;shadow=0;dashed=0;image;image=img/lib/allied_telesis/buildings/Large_Building.svg;" vertex="1" parent="1">
          <mxGeometry x="480" y="130" width="140" height="140" as="geometry" />
        </mxCell>
        <mxCell id="8_gQvbuOxsxqIe7lggPF-2" value="Sunway Medical Central&lt;br&gt;" style="points=[];aspect=fixed;html=1;align=center;shadow=0;dashed=0;image;image=img/lib/allied_telesis/buildings/Building_Cluster.svg;" vertex="1" parent="1">
          <mxGeometry x="770" y="538.9" width="141.95" height="130" as="geometry" />
        </mxCell>
        <mxCell id="8_gQvbuOxsxqIe7lggPF-3" value="Monash University" style="points=[];aspect=fixed;html=1;align=center;shadow=0;dashed=0;image;image=img/lib/allied_telesis/buildings/School_Building.svg;" vertex="1" parent="1">
          <mxGeometry x="140" y="520.5" width="165" height="166.79999999999998" as="geometry" />
        </mxCell>
        <mxCell id="8_gQvbuOxsxqIe7lggPF-5" value="" style="edgeStyle=none;orthogonalLoop=1;jettySize=auto;html=1;rounded=0;" edge="1" parent="1" target="8_gQvbuOxsxqIe7lggPF-1">
          <mxGeometry width="80" relative="1" as="geometry">
            <mxPoint x="260" y="510" as="sourcePoint" />
            <mxPoint x="650" y="550" as="targetPoint" />
            <Array as="points" />
          </mxGeometry>
        </mxCell>
        <mxCell id="8_gQvbuOxsxqIe7lggPF-8" value="650m" style="text;html=1;strokeColor=none;fillColor=none;align=center;verticalAlign=middle;whiteSpace=wrap;rounded=0;" vertex="1" parent="1">
          <mxGeometry x="320" y="360" width="60" height="30" as="geometry" />
        </mxCell>
        <mxCell id="8_gQvbuOxsxqIe7lggPF-9" value="" style="edgeStyle=none;orthogonalLoop=1;jettySize=auto;html=1;rounded=0;" edge="1" parent="1">
          <mxGeometry width="80" relative="1" as="geometry">
            <mxPoint x="630" y="270" as="sourcePoint" />
            <mxPoint x="810" y="520" as="targetPoint" />
            <Array as="points" />
          </mxGeometry>
        </mxCell>
        <mxCell id="8_gQvbuOxsxqIe7lggPF-10" value="750m" style="text;html=1;strokeColor=none;fillColor=none;align=center;verticalAlign=middle;whiteSpace=wrap;rounded=0;" vertex="1" parent="1">
          <mxGeometry x="740" y="360" width="60" height="30" as="geometry" />
        </mxCell>
        <mxCell id="8_gQvbuOxsxqIe7lggPF-11" value="" style="edgeStyle=none;orthogonalLoop=1;jettySize=auto;html=1;rounded=0;" edge="1" parent="1">
          <mxGeometry width="80" relative="1" as="geometry">
            <mxPoint x="338" y="630" as="sourcePoint" />
            <mxPoint x="763" y="630" as="targetPoint" />
            <Array as="points" />
          </mxGeometry>
        </mxCell>
        <mxCell id="8_gQvbuOxsxqIe7lggPF-12" value="750m" style="text;html=1;strokeColor=none;fillColor=none;align=center;verticalAlign=middle;whiteSpace=wrap;rounded=0;" vertex="1" parent="1">
          <mxGeometry x="520" y="640" width="60" height="30" as="geometry" />
        </mxCell>
        <mxCell id="8_gQvbuOxsxqIe7lggPF-29" style="edgeStyle=none;shape=link;rounded=0;orthogonalLoop=1;jettySize=auto;html=1;" edge="1" parent="1" source="8_gQvbuOxsxqIe7lggPF-13" target="8_gQvbuOxsxqIe7lggPF-28">
          <mxGeometry relative="1" as="geometry" />
        </mxCell>
        <mxCell id="8_gQvbuOxsxqIe7lggPF-13" value="Sunway University" style="points=[];aspect=fixed;html=1;align=center;shadow=0;dashed=0;image;image=img/lib/allied_telesis/buildings/Large_Building.svg;" vertex="1" parent="1">
          <mxGeometry x="520" y="810" width="140" height="140" as="geometry" />
        </mxCell>
        <mxCell id="8_gQvbuOxsxqIe7lggPF-14" value="Sunway Medical Central&lt;br&gt;" style="points=[];aspect=fixed;html=1;align=center;shadow=0;dashed=0;image;image=img/lib/allied_telesis/buildings/Building_Cluster.svg;" vertex="1" parent="1">
          <mxGeometry x="810" y="1218.9" width="141.95" height="130" as="geometry" />
        </mxCell>
        <mxCell id="8_gQvbuOxsxqIe7lggPF-25" style="edgeStyle=none;shape=link;rounded=0;orthogonalLoop=1;jettySize=auto;html=1;" edge="1" parent="1" source="8_gQvbuOxsxqIe7lggPF-15" target="8_gQvbuOxsxqIe7lggPF-22">
          <mxGeometry relative="1" as="geometry" />
        </mxCell>
        <mxCell id="8_gQvbuOxsxqIe7lggPF-15" value="Monash University" style="points=[];aspect=fixed;html=1;align=center;shadow=0;dashed=0;image;image=img/lib/allied_telesis/buildings/School_Building.svg;" vertex="1" parent="1">
          <mxGeometry x="180" y="1200.5" width="165" height="166.79999999999998" as="geometry" />
        </mxCell>
        <mxCell id="8_gQvbuOxsxqIe7lggPF-17" value="325m" style="text;html=1;strokeColor=none;fillColor=none;align=center;verticalAlign=middle;whiteSpace=wrap;rounded=0;" vertex="1" parent="1">
          <mxGeometry x="260" y="1060" width="60" height="30" as="geometry" />
        </mxCell>
        <mxCell id="8_gQvbuOxsxqIe7lggPF-19" value="375m" style="text;html=1;strokeColor=none;fillColor=none;align=center;verticalAlign=middle;whiteSpace=wrap;rounded=0;" vertex="1" parent="1">
          <mxGeometry x="750" y="957" width="60" height="30" as="geometry" />
        </mxCell>
        <mxCell id="8_gQvbuOxsxqIe7lggPF-20" value="" style="edgeStyle=none;orthogonalLoop=1;jettySize=auto;html=1;rounded=0;" edge="1" parent="1">
          <mxGeometry width="80" relative="1" as="geometry">
            <mxPoint x="378" y="1310" as="sourcePoint" />
            <mxPoint x="803" y="1310" as="targetPoint" />
            <Array as="points" />
          </mxGeometry>
        </mxCell>
        <mxCell id="8_gQvbuOxsxqIe7lggPF-21" value="750m" style="text;html=1;strokeColor=none;fillColor=none;align=center;verticalAlign=middle;whiteSpace=wrap;rounded=0;" vertex="1" parent="1">
          <mxGeometry x="560" y="1320" width="60" height="30" as="geometry" />
        </mxCell>
        <mxCell id="8_gQvbuOxsxqIe7lggPF-26" style="edgeStyle=none;shape=link;rounded=0;orthogonalLoop=1;jettySize=auto;html=1;" edge="1" parent="1" source="8_gQvbuOxsxqIe7lggPF-22" target="8_gQvbuOxsxqIe7lggPF-13">
          <mxGeometry relative="1" as="geometry" />
        </mxCell>
        <mxCell id="8_gQvbuOxsxqIe7lggPF-22" value="" style="shape=mxgraph.cisco.routers.atm_router;sketch=0;html=1;pointerEvents=1;dashed=0;fillColor=#036897;strokeColor=#ffffff;strokeWidth=2;verticalLabelPosition=bottom;verticalAlign=top;align=center;outlineConnect=0;" vertex="1" parent="1">
          <mxGeometry x="320" y="987" width="78" height="53" as="geometry" />
        </mxCell>
        <mxCell id="8_gQvbuOxsxqIe7lggPF-24" value="" style="shape=mxgraph.cisco.routers.ip_telephony_router;sketch=0;html=1;pointerEvents=1;dashed=0;fillColor=#036897;strokeColor=#ffffff;strokeWidth=2;verticalLabelPosition=bottom;verticalAlign=top;align=center;outlineConnect=0;" vertex="1" parent="1">
          <mxGeometry x="570" y="1170" width="78" height="69" as="geometry" />
        </mxCell>
        <mxCell id="8_gQvbuOxsxqIe7lggPF-27" value="325m" style="text;html=1;strokeColor=none;fillColor=none;align=center;verticalAlign=middle;whiteSpace=wrap;rounded=0;" vertex="1" parent="1">
          <mxGeometry x="398" y="910" width="60" height="30" as="geometry" />
        </mxCell>
        <mxCell id="8_gQvbuOxsxqIe7lggPF-30" style="edgeStyle=none;shape=link;rounded=0;orthogonalLoop=1;jettySize=auto;html=1;" edge="1" parent="1" source="8_gQvbuOxsxqIe7lggPF-28" target="8_gQvbuOxsxqIe7lggPF-14">
          <mxGeometry relative="1" as="geometry" />
        </mxCell>
        <mxCell id="8_gQvbuOxsxqIe7lggPF-28" value="" style="shape=mxgraph.cisco.routers.atm_router;sketch=0;html=1;pointerEvents=1;dashed=0;fillColor=#036897;strokeColor=#ffffff;strokeWidth=2;verticalLabelPosition=bottom;verticalAlign=top;align=center;outlineConnect=0;" vertex="1" parent="1">
          <mxGeometry x="770" y="1020" width="78" height="53" as="geometry" />
        </mxCell>
        <mxCell id="8_gQvbuOxsxqIe7lggPF-31" value="375m" style="text;html=1;strokeColor=none;fillColor=none;align=center;verticalAlign=middle;whiteSpace=wrap;rounded=0;" vertex="1" parent="1">
          <mxGeometry x="851.95" y="1110" width="60" height="30" as="geometry" />
        </mxCell>
      </root>
    </mxGraphModel>
  </diagram>
</mxfile>
